<svg width="32" height="32" viewBox="0 0 32 32" fill="none" xmlns="http://www.w3.org/2000/svg">
<g clip-path="url(#clip0_1_2)">
<rect width="32" height="32" rx="8" fill="#0A0A0A"/>
<path d="M10.5 21.5H21.5M10.5 17.8333H21.5M25.1667 12.6542V23.3333C25.1667 23.8196 24.9735 24.2859 24.6297 24.6297C24.2859 24.9735 23.8196 25.1667 23.3333 25.1667H8.66667C8.18044 25.1667 7.71412 24.9735 7.3703 24.6297C7.02649 24.2859 6.83333 23.8196 6.83333 23.3333V12.6542C6.83481 12.2886 6.94557 11.9317 7.15138 11.6295C7.3572 11.3274 7.64866 11.0936 7.98833 10.9583L15.3217 8.025C15.7573 7.85152 16.2427 7.85152 16.6783 8.025L24.0117 10.9583C24.3513 11.0936 24.6428 11.3274 24.8486 11.6295C25.0544 11.9317 25.1652 12.2886 25.1667 12.6542ZM10.5 14.1667H21.5V25.1667H10.5V14.1667Z" stroke="#FAFAFA" stroke-width="2" stroke-linecap="round" stroke-linejoin="round"/>
</g>
<defs>
<clipPath id="clip0_1_2">
<rect width="32" height="32" fill="white"/>
</clipPath>
</defs>
</svg>
