<svg width="32" height="32" viewBox="0 0 32 32" fill="none" xmlns="http://www.w3.org/2000/svg">
<g clip-path="url(#clip0_1_2)">
<circle cx="16" cy="16" r="16" fill="white"/>
<path d="M10 21H22M10 17H22M26 11.35V23C26 23.5304 25.7893 24.0391 25.4142 24.4142C25.0391 24.7893 24.5304 25 24 25H8C7.46957 25 6.96086 24.7893 6.58579 24.4142C6.21071 24.0391 6 23.5304 6 23V11.35C6.00161 10.9511 6.12244 10.5619 6.34696 10.2322C6.57149 9.90257 6.88945 9.64757 7.26 9.5L15.26 6.3C15.7352 6.11075 16.2648 6.11075 16.74 6.3L24.74 9.5C25.1105 9.64757 25.4285 9.90257 25.653 10.2322C25.8776 10.5619 25.9984 10.9511 26 11.35ZM10 13H22V25H10V13Z" stroke="#7F22FE" stroke-width="2" stroke-linecap="round" stroke-linejoin="round"/>
</g>
<defs>
<clipPath id="clip0_1_2">
<rect width="32" height="32" fill="white"/>
</clipPath>
</defs>
</svg>
